HIERARCHY
ROOT Hips
{
 OFFSET 0.000000 0.000000 0.000000
 CHANNELS 6 Xposition Yposition Zposition Yrotation Xrotation Zrotation
 JOINT Chest
 {
  OFFSET 0.000000 9.585900 0.002600
  CHANNELS 3 Yrotation Xrotation Zrotation
  JOINT Chest2
  {
   OFFSET 0.000000 9.601200 -0.005300
   CHANNELS 3 Yrotation Xrotation Zrotation
   JOINT Chest3
   {
    OFFSET 0.000000 9.561800 0.000000
    CHANNELS 3 Yrotation Xrotation Zrotation
    JOINT Chest4
    {
     OFFSET 0.000000 9.552100 0.000000
     CHANNELS 3 Yrotation Xrotation Zrotation
     JOINT Neck
     {
      OFFSET 0.000000 14.453000 0.000000
      CHANNELS 3 Yrotation Xrotation Zrotation
      JOINT Head
      {
       OFFSET 0.000000 8.936500 -0.011300
       CHANNELS 3 Yrotation Xrotation Zrotation
       End Site
       {
        OFFSET 0.000000 17.073600 -0.006000
       }
      }
     }
     JOINT RightCollar
     {
      OFFSET -2.921100 9.558500 0.000000
      CHANNELS 3 Yrotation Xrotation Zrotation
      JOINT RightShoulder
      {
       OFFSET -13.519700 0.000000 0.000000
       CHANNELS 3 Yrotation Xrotation Zrotation
       JOINT RightElbow
       {
        OFFSET 0.000000 -29.696600 0.000000
        CHANNELS 3 Yrotation Xrotation Zrotation
        JOINT RightWrist
        {
         OFFSET 0.000000 -24.004700 0.000000
         CHANNELS 3 Yrotation Xrotation Zrotation
         End Site
         {
          OFFSET 0.000000 -17.728500 0.000000
         }
        }
       }
      }
     }
     JOINT LeftCollar
     {
      OFFSET 2.921100 9.558500 0.000000
      CHANNELS 3 Yrotation Xrotation Zrotation
      JOINT LeftShoulder
      {
       OFFSET 13.519700 0.000000 0.000000
       CHANNELS 3 Yrotation Xrotation Zrotation
       JOINT LeftElbow
       {
        OFFSET 0.000000 -29.696600 0.000000
        CHANNELS 3 Yrotation Xrotation Zrotation
        JOINT LeftWrist
        {
         OFFSET 0.000000 -24.004700 0.000000
         CHANNELS 3 Yrotation Xrotation Zrotation
         End Site
         {
          OFFSET 0.000000 -17.728500 0.000000
         }
        }
       }
      }
     }
    }
   }
  }
 }
 JOINT RightHip
 {
  OFFSET -7.771700 -0.012900 -0.001300
  CHANNELS 3 Yrotation Xrotation Zrotation
  JOINT RightKnee
  {
   OFFSET 0.000000 -40.869800 0.001200
   CHANNELS 3 Yrotation Xrotation Zrotation
   JOINT RightAnkle
   {
    OFFSET 0.000000 -39.717900 0.002100
    CHANNELS 3 Yrotation Xrotation Zrotation
    JOINT RightToe
    {
     OFFSET 0.000000 -4.965400 11.033500
     CHANNELS 3 Yrotation Xrotation Zrotation
     End Site
     {
      OFFSET 0.000000 -1.423100 5.872300
     }
    }
   }
  }
 }
 JOINT LeftHip
 {
  OFFSET 7.771700 -0.012900 -0.001300
  CHANNELS 3 Yrotation Xrotation Zrotation
  JOINT LeftKnee
  {
   OFFSET 0.000000 -40.869800 0.001200
   CHANNELS 3 Yrotation Xrotation Zrotation
   JOINT LeftAnkle
   {
    OFFSET 0.000000 -39.717900 0.002100
    CHANNELS 3 Yrotation Xrotation Zrotation
    JOINT LeftToe
    {
     OFFSET 0.000000 -4.965400 11.033500
     CHANNELS 3 Yrotation Xrotation Zrotation
     End Site
     {
      OFFSET 0.000000 -1.423100 5.872300
     }
    }
   }
  }
 }
}
MOTION
Frames: 12
Frame Time: 0.008333
-216.782641 57.372905 -71.287326 159.061953 -12.666257 -0.530758 4.188830 9.638441 1.218549 0.247941 0.663365 0.006532 0.533376 1.121495 0.021045 4.035644 9.171996 0.433493 2.920910 18.526200 -0.919376 5.527804 -1.381178 -2.641344 4.847217 8.109677 -0.117250 -1.529959 -18.335174 -12.905822 -135.724750 -80.309935 155.105008 -2.681976 -1.503623 -20.242638 -9.630038 5.565834 -0.835562 14.083731 -28.699954 2.571424 121.557715 -66.470083 -151.196267 -6.016596 5.071469 -10.176326 -14.489897 -59.476870 7.352540 -31.800302 72.059773 -32.268351 -3.046489 -6.226559 -1.447164 -0.871013 0.657568 -0.268334 -2.635000 -62.087869 18.881884 42.270563 65.058743 36.149324 -17.989020 -11.114271 2.649450 0.455887 -0.860439 0.125406
-216.788586 57.377728 -71.285916 159.093602 -12.700625 -0.510318 4.189096 9.667025 1.210024 0.253511 0.661475 -0.004118 0.529783 1.134684 0.033862 4.057254 9.216422 0.434226 2.838978 18.469252 -0.944503 5.425463 -1.465005 -2.640337 4.805242 8.097844 -0.096003 -1.651421 -18.557681 -12.805722 -137.374751 -79.658739 156.749200 -2.731537 -1.596480 -20.255599 -9.648329 5.539565 -0.748779 14.337991 -28.729908 2.726798 122.094237 -65.772694 -151.760790 -5.930992 4.996022 -10.187577 -14.345682 -59.459291 7.249944 -31.866796 72.042944 -32.387573 -3.076894 -6.199261 -1.371123 -0.883101 0.629435 -0.301323 -2.646119 -62.040137 18.843145 42.218818 65.038010 36.101862 -18.024295 -11.089581 2.636258 0.501720 -0.870232 0.128948
-216.794743 57.381457 -71.286749 159.118994 -12.732876 -0.468610 4.189140 9.699848 1.189808 0.272299 0.662454 -0.001041 0.512647 1.144715 0.034579 4.036718 9.226691 0.423180 2.798566 18.442835 -0.954090 5.325290 -1.551736 -2.646246 4.795029 8.098652 -0.093765 -1.824730 -18.729190 -12.696755 -138.901815 -78.962496 158.308954 -2.785194 -1.696146 -20.261274 -9.607352 5.536501 -0.684706 14.619083 -28.733844 2.884494 122.437764 -65.088916 -152.188513 -5.849599 4.920679 -10.210089 -14.156876 -59.448994 7.106359 -31.942813 72.027646 -32.513497 -3.114922 -6.185986 -1.296099 -0.902692 0.623937 -0.308655 -2.710685 -61.959689 18.829512 42.201995 64.993836 36.041666 -18.009009 -11.101757 2.618762 0.501960 -0.855530 0.138225
-216.791931 57.383365 -71.282765 159.146839 -12.741278 -0.475622 4.195147 9.710330 1.223640 0.255040 0.660223 -0.016961 0.522990 1.153403 0.045658 4.074162 9.284021 0.488858 2.690929 18.369616 -1.020053 5.222588 -1.637107 -2.652115 4.726576 8.056397 -0.164399 -2.071602 -18.869173 -12.592010 -140.271924 -78.217752 159.769574 -2.839770 -1.804176 -20.261975 -9.599652 5.474994 -0.677699 14.937383 -28.722326 3.020347 122.611996 -64.429284 -152.507959 -5.775602 4.851055 -10.252722 -14.053675 -59.451165 7.058268 -32.041110 72.013869 -32.639012 -3.148297 -6.164730 -1.239690 -0.920029 0.606338 -0.315006 -2.791603 -61.928970 18.865885 42.135466 64.958032 35.992099 -18.034230 -11.090243 2.570613 0.544644 -0.855105 0.174156
-216.788607 57.385065 -71.284915 159.156584 -12.768768 -0.458352 4.219771 9.744899 1.244202 0.252190 0.661408 -0.019994 0.529516 1.163494 0.054081 4.092664 9.320626 0.532007 2.596173 18.311967 -1.061104 5.118880 -1.722251 -2.658087 4.675756 8.035051 -0.221065 -2.408321 -18.987274 -12.498825 -141.465440 -77.427657 161.119874 -2.896285 -1.920430 -20.263589 -9.567085 5.433066 -0.665568 15.297870 -28.704283 3.125888 122.649251 -63.800996 -152.755909 -5.706581 4.790885 -10.322976 -13.882864 -59.441777 6.954114 -32.152689 72.005984 -32.774813 -3.187354 -6.153895 -1.168521 -0.934220 0.598761 -0.320834 -2.785465 -61.892369 18.839336 42.116857 64.945161 35.981146 -18.039873 -11.078848 2.559748 0.554698 -0.863671 0.173769
-216.784204 57.386620 -71.292086 159.190767 -12.809028 -0.433912 4.201665 9.791039 1.235239 0.268444 0.668974 -0.002457 0.552331 1.175011 0.069141 4.095420 9.340172 0.552654 2.510945 18.270192 -1.079658 5.016658 -1.807086 -2.658153 4.624227 8.026093 -0.271307 -2.818893 -19.078005 -12.408261 -142.464564 -76.602467 162.340277 -2.952014 -2.045939 -20.266775 -9.518942 5.412066 -0.646391 15.705066 -28.683632 3.191319 122.586710 -63.213560 -152.966589 -5.643101 4.739265 -10.423175 -13.702528 -59.419996 6.812265 -32.277930 72.000953 -32.919299 -3.235035 -6.154603 -1.099606 -0.940536 0.595743 -0.323209 -2.772418 -61.843909 18.781407 42.110566 64.937149 35.971142 -18.021341 -11.069473 2.570165 0.534404 -0.876966 0.186381
-216.778377 57.387583 -71.300672 159.201256 -12.842306 -0.403393 4.252499 9.834053 1.260007 0.248998 0.672457 -0.009068 0.566502 1.179527 0.072474 4.114342 9.360820 0.582925 2.429485 18.231406 -1.087187 4.907114 -1.885564 -2.647889 4.604779 8.064005 -0.323011 -3.339438 -19.185637 -12.312573 -143.263825 -75.755001 163.417641 -3.006108 -2.180908 -20.262928 -9.475594 5.399122 -0.630371 16.159356 -28.658261 3.218353 122.450056 -62.668656 -153.158279 -5.588248 4.699252 -10.547965 -13.500301 -59.403403 6.669571 -32.400503 71.995036 -33.055432 -3.269304 -6.168099 -1.066662 -0.953860 0.601347 -0.308145 -2.728749 -61.782465 18.710953 42.065540 64.909123 35.946136 -18.047767 -11.111631 2.548051 0.576058 -0.834387 0.199142
-216.767804 57.388418 -71.309956 159.213618 -12.872058 -0.394478 4.317616 9.869511 1.308719 0.297081 0.684430 0.021584 0.510797 1.176140 0.039170 4.136943 9.380989 0.611519 2.388252 18.188414 -1.042553 4.756513 -1.945597 -2.657658 4.543539 8.074509 -0.383202 -3.874894 -19.238974 -12.220582 -143.884882 -74.895203 164.363047 -3.061637 -2.314886 -20.241500 -9.440832 5.392922 -0.615400 16.652558 -28.630474 3.214352 122.252893 -62.163246 -153.331831 -5.542623 4.672816 -10.685369 -13.340096 -59.384187 6.567613 -32.516334 71.992606 -33.183530 -3.292069 -6.173802 -1.012201 -0.979266 0.597250 -0.316486 -2.709255 -61.741455 18.670130 42.025480 64.899683 35.942302 -18.034176 -11.135201 2.528284 0.577072 -0.817590 0.203962
-216.759730 57.387901 -71.315657 159.216196 -12.859261 -0.374985 4.385525 9.860776 1.335536 0.299958 0.688415 0.023372 0.515660 1.182801 0.042381 4.164186 9.401230 0.638307 2.312862 18.153367 -1.034292 4.631238 -2.004901 -2.624431 4.472489 8.083733 -0.442419 -4.434395 -19.268732 -12.139671 -144.366705 -74.032795 165.198447 -3.116012 -2.436326 -20.195338 -9.416545 5.390475 -0.599636 17.166995 -28.600242 3.189369 122.014541 -61.693594 -153.486984 -5.507434 4.654053 -10.825323 -13.245200 -59.404854 6.506591 -32.550139 72.006072 -33.257949 -3.187376 -6.226853 -0.915093 -1.100649 0.631529 -0.408999 -2.669036 -61.742778 18.618693 41.970300 64.899619 35.925936 -18.076510 -11.111623 2.499984 0.635433 -0.849656 0.222456
-216.745136 57.390595 -71.334305 159.193872 -12.920290 -0.358562 4.489917 9.925823 1.375602 0.303273 0.692668 0.025161 0.521306 1.189992 0.045495 4.196041 9.422235 0.664641 2.186260 18.118210 -1.064426 4.545416 -2.056277 -2.551222 4.364615 8.069439 -0.492073 -4.968134 -19.259305 -12.089448 -144.764300 -73.179331 165.957217 -3.166141 -2.542981 -20.126242 -9.401980 5.385990 -0.580751 17.688925 -28.561728 3.152070 121.750226 -61.252361 -153.623964 -5.487411 4.635138 -10.966735 -13.112296 -59.350865 6.428966 -32.596455 72.019205 -33.343790 -3.168343 -6.232200 -0.833491 -1.152179 0.621328 -0.452401 -2.614314 -61.670024 18.578951 41.904943 64.912373 35.943331 -18.161994 -11.158588 2.452510 0.728736 -0.830363 0.234975
-216.733107 57.392649 -71.350216 159.212392 -12.947485 -0.344009 4.513146 9.956589 1.381873 0.355080 0.700420 0.041648 0.527370 1.197562 0.048671 4.230115 9.444398 0.691561 2.163292 18.099647 -1.004803 4.355341 -2.105865 -2.523468 4.247605 8.051322 -0.537657 -5.496200 -19.234281 -12.061777 -145.122125 -72.345431 166.671172 -3.216786 -2.636409 -20.037564 -9.393966 5.378503 -0.558005 18.215383 -28.514327 3.104810 121.459271 -60.834686 -153.738147 -5.479331 4.609373 -11.105710 -12.956071 -59.332175 6.312648 -32.723650 72.020900 -33.482244 -3.173821 -6.247502 -0.779231 -1.177128 0.620668 -0.462221 -2.586891 -61.629799 18.531181 41.857591 64.911711 35.937920 -18.199387 -11.186032 2.422096 0.742223 -0.816980 0.249460
-216.717070 57.395424 -71.366115 159.248552 -12.973730 -0.358680 4.601036 9.987039 1.447175 0.336105 0.703291 0.036044 0.533271 1.205272 0.051779 4.262576 9.467557 0.717479 2.108818 18.084671 -0.969941 4.194399 -2.147658 -2.472141 4.196758 8.083230 -0.595813 -6.096021 -19.250560 -12.020998 -145.439202 -71.540303 167.338518 -3.270725 -2.719064 -19.928347 -9.384292 5.369358 -0.532254 18.739034 -28.458217 3.050024 121.146969 -60.439420 -153.832263 -5.466648 4.570835 -11.228741 -12.751847 -59.311104 6.182809 -32.981228 72.003908 -33.704307 -3.237152 -6.256708 -0.734478 -1.146278 0.615381 -0.439576 -2.619281 -61.589038 18.532048 41.804175 64.907054 35.928914 -18.213547 -11.218053 2.379933 0.764790 -0.795307 0.259940
